<?xml version="1.0" encoding="UTF-8" standalone="no"?>
<!-- Creator: CorelDRAW -->

<svg
   xml:space="preserve"
   width="6.82666in"
   height="6.82666in"
   style="shape-rendering:geometricPrecision; text-rendering:geometricPrecision; image-rendering:optimizeQuality; fill-rule:evenodd; clip-rule:evenodd"
   viewBox="0 0 6.82666 6.82666"
   version="1.1"
   id="svg17"
   sodipodi:docname="avion.svg"
   inkscape:version="1.1.2 (0a00cf5339, 2022-02-04, custom)"
   xmlns:inkscape="http://www.inkscape.org/namespaces/inkscape"
   xmlns:sodipodi="http://sodipodi.sourceforge.net/DTD/sodipodi-0.dtd"
   xmlns="http://www.w3.org/2000/svg"
   xmlns:svg="http://www.w3.org/2000/svg"><sodipodi:namedview
   id="namedview19"
   pagecolor="#505050"
   bordercolor="#ffffff"
   borderopacity="1"
   inkscape:pageshadow="0"
   inkscape:pageopacity="0"
   inkscape:pagecheckerboard="1"
   inkscape:document-units="in"
   showgrid="false"
   inkscape:zoom="1.3198865"
   inkscape:cx="328.05851"
   inkscape:cy="327.67969"
   inkscape:window-width="1920"
   inkscape:window-height="1080"
   inkscape:window-x="0"
   inkscape:window-y="0"
   inkscape:window-maximized="1"
   inkscape:current-layer="Layer_x0020_1" />
 <defs
   id="defs4">
  <style
   type="text/css"
   id="style2">
   <![CDATA[
    .fil1 {fill:none}
    .fil0 {fill:#212121;fill-rule:nonzero}
   ]]>
  </style>
 </defs>
 <g
   id="Layer_x0020_1"
   inkscape:label="Layer 1"
   inkscape:groupmode="layer">
  <metadata
   id="CorelCorpID_0Corel-Layer" />
  <g
   id="_678622144"
   style="fill:#333333">
   <path
   id="_678622408"
   class="fil0"
   d="M 5.57636,3.8387 C 5.206191,4.001393 4.687624,3.991302 4.12519,3.980361 3.991741,3.9777665 3.85558,3.975113 3.687903,3.975113 c -0.755693,0 -1.44109,-0.054083 -1.93831,-0.141516 -0.545937,-0.096 -0.88361,-0.25113 -0.88361,-0.442622 0,-0.191492 0.337673,-0.346618 0.883614,-0.442618 0.497224,-0.087433 1.18261,-0.141516 1.93831,-0.141516 0.164087,0 0.288626,-0.00195 0.410902,-0.00386 0.573413,-0.00896 1.10176,-0.017232 1.48102,0.140346 C 5.715923,2.99987 5.815219,3.069134 5.87951,3.145004 5.943128,3.220075 5.97366,3.301969 5.972912,3.385953 5.9721718,3.468981 5.940699,3.549752 5.88027,3.623827 5.813868,3.705233 5.711487,3.779311 5.576364,3.838701 Z M 4.12852,3.7678575 C 4.666378,3.7783225 5.16228,3.7879715 5.49053,3.6437005 5.594617,3.5979525 5.670136,3.5449915 5.71527,3.4896615 5.744774,3.4534965 5.760112,3.4177045 5.760408,3.3842835 5.7606954,3.3518075 5.746506,3.3173185 5.717006,3.2825075 5.67403,3.2317905 5.601809,3.1830585 5.49816,3.1399955 5.158707,2.9989605 4.65203,3.0068855 4.10214,3.0154835 c -0.148697,0.00232 -0.30028,0.0047 -0.414232,0.0047 -0.743902,0 -1.41615,0.052807 -1.90164,0.138177 -0.436783,0.076807 -0.706945,0.160417 -0.706945,0.232618 0,0.072205 0.270161,0.155815 0.706941,0.232622 0.485492,0.08537 1.15774,0.138177 1.90164,0.138177 0.128087,0 0.285945,0.00307 0.440618,0.00608 z"
   style="fill:#333333" />
   <path
   id="_678621880"
   class="fil0"
   d="M 4.03408,2.98243 2.96729,1.3745 2.835837,1.219559 2.8262543,1.205807 C 2.8142893,1.186075 2.7871873,1.174712 2.7514633,1.168142 c -0.047161,-0.00867 -0.106988,-0.00804 -0.170984,-0.00433 0.00211,0.024158 0.015595,0.060728 0.040512,0.109783 l 0.00375,0.00875 c 0.136791,0.34276 0.251528,0.653169 0.340843,0.926291 0.090496,0.27674 0.156433,0.519453 0.194563,0.723646 L 2.9509823,2.970613 C 2.9149663,2.777739 2.8512543,2.544105 2.7630803,2.274471 2.6742853,2.002936 2.5621473,1.699014 2.4297453,1.366963 2.3831863,1.274648 2.3629023,1.196754 2.3687293,1.133219 2.3772793,1.039908 2.4286863,0.98095102 2.5226423,0.95612502 l 0.02,-0.003335 c 0.086799,-0.005835 0.171406,-0.007748 0.24715,0.006189 0.089067,0.0163819 0.163287,0.0537164 0.211921,0.12705498 l 0.132047,0.155646 0.0075,0.01 1.07032,1.61325 -0.177504,0.117504 z"
   style="fill:#333333" />
   <path
   id="_678622000"
   class="fil0"
   d="m 4.21158,3.96174 -1.07032,1.61325 -0.0075,0.01 -0.132047,0.155646 C 2.953079,5.813975 2.878859,5.851309 2.789792,5.867691 2.714048,5.881628 2.629442,5.879715 2.542642,5.873881 l -0.02,-0.00333 C 2.428685,5.845724 2.377276,5.786767 2.368729,5.693457 2.362899,5.629922 2.383186,5.552028 2.429745,5.459713 2.562147,5.127662 2.674284,4.823741 2.76308,4.552205 2.851253,4.282571 2.914966,4.048937 2.950982,3.856063 L 3.160147,3.894394 C 3.122017,4.098587 3.05608,4.3413 2.965584,4.61804 2.876269,4.891162 2.761533,5.201571 2.624741,5.544331 l -0.00375,0.00875 C 2.596074,5.602136 2.582593,5.638707 2.580479,5.662864 2.644475,5.666564 2.704302,5.667204 2.751463,5.658534 2.787187,5.651964 2.81429,5.640601 2.826254,5.620869 L 2.835834,5.607117 2.967287,5.452176 4.034077,3.844246 4.211581,3.96175 Z"
   style="fill:#333333" />
   <path
   id="_678621784"
   class="fil0"
   d="M 1.66829,3.08698 C 1.5831955,2.9992044 1.458227,2.873374 1.325196,2.778141 1.2568732,2.7292316 1.187558,2.6887394 1.123873,2.668098 1.148964,2.704716 1.179082,2.745842 1.209487,2.78737 1.284184,2.889382 1.360463,2.993555 1.390436,3.071138 L 1.192105,3.147807 C 1.1725658,3.0972246 1.1044832,3.0042483 1.0378182,2.9132053 0.9731371,2.8248667 0.9096372,2.7381503 0.8783142,2.6720203 0.8329166,2.5761896 0.8386292,2.5011223 0.9272315,2.4591583 l 0.0191654,-0.00667 c 0.16348,-0.041957 0.341327,0.03661 0.502965,0.1523189 0.145524,0.104173 0.28,0.23952 0.371433,0.333839 l -0.152504,0.148331 z"
   style="fill:#333333" />
   <path
   id="_678622024"
   class="fil0"
   d="M 1.82079,3.80053 C 1.7293569,3.8948489 1.594881,4.030195 1.449357,4.134369 1.287719,4.250078 1.109869,4.328641 0.946392,4.286692 L 0.9272266,4.2800267 C 0.8386242,4.2380424 0.8329195,4.1629757 0.8783172,4.0671527 c 0.0313307,-0.066138 0.0948268,-0.152854 0.1595,-0.241177 0.066661,-0.091043 0.134744,-0.18402 0.154283,-0.234602 l 0.198331,0.076669 c -0.029972,0.077587 -0.106252,0.181756 -0.180945,0.283768 -0.030405,0.041524 -0.060524,0.082654 -0.085614,0.1192719 0.063685,-0.020642 0.132996,-0.061134 0.201319,-0.1100429 0.133031,-0.095232 0.258,-0.221063 0.343094,-0.308839 l 0.152504,0.148331 z"
   style="fill:#333333" />
   <path
   id="_678622168"
   class="fil0"
   d="m 5.31001,2.87113 c 0.150843,0.340984 0.147921,0.681976 0,1.02296 l -0.195,-0.084165 c 0.123339,-0.284315 0.125776,-0.568642 0,-0.852961 z"
   style="fill:#333333" />
  </g>
 </g>
 <rect
   class="fil1"
   width="6.82666"
   height="6.82666"
   id="rect15" />
</svg>
