<?xml version="1.0" encoding="UTF-8" standalone="no"?>
<svg
   xmlns:dc="http://purl.org/dc/elements/1.1/"
   xmlns:cc="http://creativecommons.org/ns#"
   xmlns:rdf="http://www.w3.org/1999/02/22-rdf-syntax-ns#"
   xmlns:svg="http://www.w3.org/2000/svg"
   xmlns="http://www.w3.org/2000/svg"
   width="100%"
   height="100%"
   viewBox="0 0 64 64"
   version="1.1"
   xml:space="preserve"
   style="fill-rule:evenodd;clip-rule:evenodd;stroke-linecap:round;stroke-linejoin:round;stroke-miterlimit:2;"
   id="svg25">
  <metadata
   id="metadata31">
    <rdf:RDF>
      <cc:Work
   rdf:about="">
        <dc:format>image/svg+xml</dc:format>

        <dc:type
   rdf:resource="http://purl.org/dc/dcmitype/StillImage" />

      </cc:Work>

    </rdf:RDF>

  </metadata>

  <defs
   id="defs29" />

  
  <path
   d="M55,38l-2.5,0"
   style="fill:none;stroke:#222a33;stroke-width:1.5px;"
   id="path3" />

  <path
   d="M45.5,32l-8,0"
   style="fill:none;stroke:#222a33;stroke-width:1.5px;"
   id="path5" />

  <path
   d="M33.75,32l-15.25,0c0,0 -0.234,-4.165 4,-8"
   style="fill:none;stroke:#222a33;stroke-width:1.5px;"
   id="path7" />

  <circle
   cx="20"
   cy="45"
   r="5.5"
   style="fill:none;stroke:#222a33;stroke-width:1.5px;"
   id="circle9" />

  <path
   d="M38.5,45c0,-3.036 2.464,-5.5 5.5,-5.5c3.036,0 5.5,2.464 5.5,5.5c0,3.036 -2.464,5.5 -5.5,5.5c-1.929,0 -3.628,-0.995 -4.609,-2.5"
   style="fill:none;stroke:#222a33;stroke-width:1.5px;"
   id="path11" />

  <path
   d="M14.5,45l-3.287,0c-1.775,0 -3.213,-1.438 -3.213,-3.213c0,-0.527 0,-1.063 0,-1.559c0,-1.231 0.998,-2.228 2.228,-2.228c0.001,0 0.001,0 0.002,0c0.456,0 0.856,-0.302 0.982,-0.741c0.419,-1.467 1.388,-4.859 2.241,-7.845c0.916,-3.205 3.845,-5.414 7.177,-5.414l17.191,0c1.898,0 3.584,1.215 4.184,3.016c0.089,0.265 0.18,0.538 0.272,0.815c1.029,3.087 3.918,5.169 7.172,5.169l0.657,0c1.298,0 2.543,0.516 3.461,1.433c0.917,0.918 1.433,2.163 1.433,3.461l0,0.106c0.552,0 1,0.448 1,1c0,0.735 0,1.777 0,2.787c0,1.775 -1.438,3.213 -3.213,3.213l-3.287,0"
   style="fill:none;stroke:#222a33;stroke-width:1.5px;"
   id="path13" />

  <path
   d="M38.5,45l-9.5,0"
   style="fill:none;stroke:#222a33;stroke-width:1.5px;"
   id="path15" />

  <path
   d="M53,22.5c2.209,0 4,-1.791 4,-4l0,-3.423c0,-0.319 -0.258,-0.577 -0.577,-0.577l-6.846,0c-0.319,0 -0.577,0.258 -0.577,0.577l0,3.423c0,2.209 1.791,4 4,4l0,0Z"
   style="fill:none;stroke:#222a33;stroke-width:1.5px;"
   id="path17" />

  <path
   d="M56.014,9.5l0,2"
   style="fill:none;stroke:#222a33;stroke-width:1.5px;"
   id="path19" />

  <path
   d="M50,9.5l0,5"
   style="fill:none;stroke:#222a33;stroke-width:1.5px;"
   id="path21" />

  <path
   d="M53,22.5l0,1.95c0,0.941 -0.374,1.844 -1.04,2.51c-0.666,0.666 -1.569,1.04 -2.51,1.04c-1.939,0 -3.95,0 -3.95,0"
   style="fill:none;stroke:#222a33;stroke-width:1.5px;"
   id="path23" />

</svg>
