<?xml version="1.0" encoding="utf-8"?>
<!-- Generator: Adobe Illustrator 18.0.0, SVG Export Plug-In . SVG Version: 6.00 Build 0)  -->
<!DOCTYPE svg PUBLIC "-//W3C//DTD SVG 1.1//EN" "http://www.w3.org/Graphics/SVG/1.1/DTD/svg11.dtd">
<svg version="1.1" id="Icon_Set" xmlns="http://www.w3.org/2000/svg" xmlns:xlink="http://www.w3.org/1999/xlink" x="0px" y="0px"
	 viewBox="0 0 256 256" style="enable-background:new 0 0 256 256;" xml:space="preserve">
<style type="text/css">
	.st0{fill:#4C4372;}
	.st1{fill:#F0C48A;}
	.st2{fill:#FD919E;}
	.st3{fill:#D3E6F8;}
	.st4{fill:#A4CFF2;}
	.st5{fill:#FFFFFF;}
	.st6{fill:#7BABF1;}
	.st7{fill:#E8677D;}
</style>
<g>
	<g>
		<g>
			<circle class="st1" cx="128" cy="128" r="103.5"/>
		</g>
	</g>
	<g>
		<path class="st3" d="M136.938,44.695c-32.706-0.818-59.611,24.82-60.849,57.039l0,0c-0.03,0.77-0.049,1.543-0.049,2.32
			c0,0.777,0.02,1.55,0.049,2.319v14.13l-14.336,22.584c-1.47,2.315,0.194,5.341,2.936,5.341h11.399v27.434
			c0,6.216,5.039,11.256,11.256,11.256h31.165v24.207h59.132v-56.983c0-5.143,1.779-10.097,4.91-14.177
			c7.642-9.958,12.2-22.408,12.243-35.92C194.895,72.116,169.057,45.498,136.938,44.695z"/>
	</g>
	<g>
		<g>
			<path class="st4" d="M142.897,45.145c23.529,7.991,40.487,30.408,40.405,56.448c-0.042,13.513-4.601,25.962-12.243,35.92
				c-3.131,4.08-4.91,9.034-4.91,14.176v59.635h11.491v-56.983c0-5.143,1.779-10.097,4.91-14.177
				c7.642-9.958,12.2-22.408,12.243-35.92C194.889,74.129,172.193,48.855,142.897,45.145z"/>
		</g>
	</g>
	<g>
		<path class="st0" d="M177.641,214.325h-59.132c-1.657,0-3-1.343-3-3v-21.207H87.344c-7.861,0-14.256-6.395-14.256-14.256v-24.434
			h-8.399c-2.363,0-4.538-1.287-5.676-3.357c-1.139-2.071-1.059-4.597,0.208-6.592l13.868-21.848V106.43
			c-0.03-0.789-0.049-1.58-0.049-2.376c0-0.816,0.021-1.627,0.052-2.436c1.312-34.141,29.545-60.769,63.922-59.922
			c33.621,0.84,60.888,28.904,60.781,62.558c-0.043,13.779-4.491,26.829-12.863,37.737c-2.767,3.605-4.29,7.991-4.29,12.351v56.983
			C180.641,212.981,179.298,214.325,177.641,214.325z M121.509,208.325h53.132v-53.983c0-5.673,1.964-11.356,5.53-16.003
			c7.564-9.857,11.583-21.65,11.623-34.103c0.096-30.418-24.546-55.782-54.931-56.542c-31.098-0.778-56.59,23.298-57.777,54.155
			c-0.028,0.732-0.047,1.466-0.047,2.205s0.019,1.472,0.047,2.203c0.001,0.039,0.002,0.078,0.002,0.116v14.13
			c0,0.569-0.162,1.127-0.467,1.608l-14.335,22.584c-0.037,0.059-0.151,0.238-0.015,0.486s0.349,0.248,0.418,0.248h11.399
			c1.657,0,3,1.343,3,3v27.434c0,4.552,3.704,8.256,8.256,8.256h31.165c1.657,0,3,1.343,3,3V208.325z"/>
	</g>
	<g>
		<path class="st4" d="M156.276,123.462h-35.935c-3.498,0-6.333-2.835-6.333-6.332V81.195c0-3.497,2.835-6.333,6.333-6.333h35.935
			c3.497,0,6.333,2.836,6.333,6.333v35.935C162.609,120.627,159.773,123.462,156.276,123.462z"/>
	</g>
	<g>
		<circle class="st2" cx="137.231" cy="173.422" r="8.396"/>
	</g>
	<g>
		<circle class="st2" cx="159.327" cy="151.16" r="8.396"/>
	</g>
	<g>
		<path class="st0" d="M156.276,126.462h-35.935c-5.146,0-9.333-4.187-9.333-9.333V81.195c0-5.146,4.187-9.333,9.333-9.333h35.935
			c5.146,0,9.333,4.187,9.333,9.333v35.935C165.609,122.275,161.422,126.462,156.276,126.462z M120.342,77.862
			c-1.838,0-3.333,1.495-3.333,3.333v35.935c0,1.837,1.495,3.333,3.333,3.333h35.935c1.837,0,3.333-1.495,3.333-3.333V81.195
			c0-1.837-1.495-3.333-3.333-3.333H120.342z"/>
	</g>
	<g>
		<g>
			<g>
				<path class="st0" d="M127.166,136.6c-1.657,0-3-1.343-3-3v-10.138c0-1.657,1.343-3,3-3s3,1.343,3,3V133.6
					C130.166,135.256,128.823,136.6,127.166,136.6z"/>
			</g>
			<g>
				<path class="st0" d="M149.452,136.6c-1.657,0-3-1.343-3-3v-10.138c0-1.657,1.343-3,3-3s3,1.343,3,3V133.6
					C152.452,135.256,151.108,136.6,149.452,136.6z"/>
			</g>
			<g>
				<path class="st0" d="M138.309,136.6c-1.657,0-3-1.343-3-3v-10.138c0-1.657,1.343-3,3-3s3,1.343,3,3V133.6
					C141.309,135.256,139.966,136.6,138.309,136.6z"/>
			</g>
		</g>
		<g>
			<g>
				<path class="st0" d="M127.166,77.862c-1.657,0-3-1.343-3-3V64.725c0-1.657,1.343-3,3-3s3,1.343,3,3v10.137
					C130.166,76.519,128.823,77.862,127.166,77.862z"/>
			</g>
			<g>
				<path class="st0" d="M149.452,77.862c-1.657,0-3-1.343-3-3V64.725c0-1.657,1.343-3,3-3s3,1.343,3,3v10.137
					C152.452,76.519,151.108,77.862,149.452,77.862z"/>
			</g>
			<g>
				<path class="st0" d="M138.309,77.862c-1.657,0-3-1.343-3-3V64.725c0-1.657,1.343-3,3-3s3,1.343,3,3v10.137
					C141.309,76.519,139.966,77.862,138.309,77.862z"/>
			</g>
		</g>
	</g>
	<g>
		<g>
			<g>
				<path class="st0" d="M114.009,91.02h-10.137c-1.657,0-3-1.343-3-3s1.343-3,3-3h10.137c1.657,0,3,1.343,3,3
					S115.666,91.02,114.009,91.02z"/>
			</g>
			<g>
				<path class="st0" d="M114.009,102.162h-10.137c-1.657,0-3-1.343-3-3s1.343-3,3-3h10.137c1.657,0,3,1.343,3,3
					S115.666,102.162,114.009,102.162z"/>
			</g>
			<g>
				<path class="st0" d="M114.009,113.305h-10.137c-1.657,0-3-1.343-3-3s1.343-3,3-3h10.137c1.657,0,3,1.343,3,3
					S115.666,113.305,114.009,113.305z"/>
			</g>
		</g>
		<g>
			<g>
				<path class="st0" d="M172.746,91.02h-10.137c-1.657,0-3-1.343-3-3s1.343-3,3-3h10.137c1.657,0,3,1.343,3,3
					S174.403,91.02,172.746,91.02z"/>
			</g>
			<g>
				<path class="st0" d="M172.746,102.162h-10.137c-1.657,0-3-1.343-3-3s1.343-3,3-3h10.137c1.657,0,3,1.343,3,3
					S174.403,102.162,172.746,102.162z"/>
			</g>
			<g>
				<path class="st0" d="M172.746,113.305h-10.137c-1.657,0-3-1.343-3-3s1.343-3,3-3h10.137c1.657,0,3,1.343,3,3
					S174.403,113.305,172.746,113.305z"/>
			</g>
		</g>
	</g>
	<g>
		<path class="st0" d="M137.231,214.325c-1.657,0-3-1.343-3-3v-29.506c0-1.657,1.343-3,3-3s3,1.343,3,3v29.506
			C140.231,212.981,138.888,214.325,137.231,214.325z"/>
	</g>
	<g>
		<path class="st0" d="M159.327,214.325c-1.657,0-3-1.343-3-3v-51.768c0-1.657,1.343-3,3-3s3,1.343,3,3v51.768
			C162.327,212.981,160.984,214.325,159.327,214.325z"/>
	</g>
	<g>
		<path class="st0" d="M137.231,184.819c-6.284,0-11.396-5.112-11.396-11.396s5.112-11.396,11.396-11.396
			s11.396,5.112,11.396,11.396S143.516,184.819,137.231,184.819z M137.231,168.026c-2.976,0-5.396,2.421-5.396,5.396
			s2.421,5.396,5.396,5.396s5.396-2.421,5.396-5.396S140.207,168.026,137.231,168.026z"/>
	</g>
	<g>
		<path class="st0" d="M159.327,162.557c-6.284,0-11.396-5.112-11.396-11.396s5.112-11.396,11.396-11.396
			s11.396,5.112,11.396,11.396S165.611,162.557,159.327,162.557z M159.327,145.764c-2.976,0-5.396,2.421-5.396,5.396
			s2.421,5.396,5.396,5.396s5.396-2.421,5.396-5.396S162.303,145.764,159.327,145.764z"/>
	</g>
	<g>
		<path class="st6" d="M145.51,110.768h-14.403c-2.432,0-4.404-1.972-4.404-4.404V91.961c0-2.433,1.972-4.404,4.404-4.404h14.403
			c2.433,0,4.404,1.972,4.404,4.404v14.403C149.915,108.796,147.943,110.768,145.51,110.768z"/>
	</g>
	<g>
		<path class="st0" d="M145.51,113.768h-14.403c-4.083,0-7.404-3.322-7.404-7.404V91.961c0-4.083,3.322-7.404,7.404-7.404h14.403
			c4.083,0,7.404,3.322,7.404,7.404v14.403C152.915,110.446,149.593,113.768,145.51,113.768z M131.107,90.557
			c-0.774,0-1.404,0.63-1.404,1.404v14.403c0,0.774,0.63,1.404,1.404,1.404h14.403c0.774,0,1.404-0.63,1.404-1.404V91.961
			c0-0.774-0.63-1.404-1.404-1.404H131.107z"/>
	</g>
</g>
</svg>
