<?xml version="1.0" encoding="utf-8"?>
<!-- Generator: Adobe Illustrator 24.3.0, SVG Export Plug-In . SVG Version: 6.00 Build 0)  -->
<svg version="1.1" id="Layer_1" xmlns="http://www.w3.org/2000/svg" xmlns:xlink="http://www.w3.org/1999/xlink" x="0px" y="0px"
	 viewBox="0 0 300 300" enable-background="new 0 0 300 300" xml:space="preserve">
<g>
	<path d="M197.06,179.314c0,4.523,3.666,8.186,8.188,8.186c4.522,0,8.186-3.664,8.186-8.186c0-4.521-3.664-8.186-8.186-8.186
		C200.726,171.127,197.06,174.792,197.06,179.314z"/>
	<path d="M168.281,169.489c0-3.125-2.53-5.656-5.654-5.656c-3.124,0-5.656,2.531-5.656,5.656c0,3.121,2.532,5.654,5.656,5.654
		C165.75,175.143,168.281,172.61,168.281,169.489z"/>
	<path d="M205.644,66.404c3.123,0,5.654-2.532,5.654-5.654c0-3.123-2.531-5.656-5.654-5.656c-3.124,0-5.656,2.533-5.656,5.656
		C199.988,63.872,202.52,66.404,205.644,66.404z"/>
	<path d="M183.135,165.878c0,1.993,1.615,3.61,3.609,3.61c1.993,0,3.608-1.617,3.608-3.61c0-1.993-1.615-3.608-3.608-3.608
		C184.75,162.27,183.135,163.885,183.135,165.878z"/>
	<path d="M183.66,72.049c1.993,0,3.609-1.616,3.609-3.609s-1.616-3.608-3.609-3.608c-1.993,0-3.609,1.615-3.609,3.608
		S181.667,72.049,183.66,72.049z"/>
	<path d="M91.794,167.625c4.521,0,8.187-3.665,8.187-8.185c0-4.523-3.665-8.189-8.187-8.189s-8.187,3.666-8.187,8.189
		C83.607,163.96,87.272,167.625,91.794,167.625z"/>
	<path d="M88.669,132.035c0,3.123,2.533,5.655,5.657,5.655c3.123,0,5.655-2.532,5.655-5.655c0-3.124-2.532-5.655-5.655-5.655
		C91.202,126.379,88.669,128.911,88.669,132.035z"/>
	<path d="M88.669,108.094c-1.993,0-3.608,1.615-3.608,3.609c0,1.992,1.616,3.608,3.608,3.608c1.994,0,3.609-1.616,3.609-3.608
		C92.278,109.709,90.662,108.094,88.669,108.094z"/>
	<path d="M109.89,75.952H75.882c-7.542,0-13.68,6.138-13.68,13.68c0,5.713,3.52,10.619,8.502,12.664v76.11
		c0,2.86,2.319,5.179,5.178,5.179c11.086,0,18.441,0.001,18.441,0.001h0.002c2.858,0,5.176-2.318,5.178-5.176
		c0-2.86-2.317-5.178-5.178-5.178c0,0-5.124-0.002-13.266-0.002V98.134c0-2.86-2.317-5.179-5.178-5.179
		c-1.831,0-3.325-1.491-3.325-3.324c0-1.832,1.493-3.323,3.325-3.323h34.008c1.833,0,3.326,1.491,3.326,3.323
		c0,1.833-1.492,3.324-3.326,3.324H94.325c-2.861,0-5.178,2.318-5.178,5.179c0,2.859,2.317,5.177,5.178,5.177h10.387v119.415
		c0,6.521-5.305,11.824-11.826,11.824c-6.522,0-11.827-5.304-11.827-11.824v-27.969c0-2.861-2.317-5.178-5.178-5.178
		c-2.859,0-5.178,2.316-5.178,5.178v27.969c0,12.229,9.951,22.181,22.183,22.181c12.231,0,22.182-9.952,22.182-22.181V102.291
		c4.983-2.044,8.501-6.946,8.501-12.659C123.57,82.089,117.433,75.952,109.89,75.952z"/>
	<path d="M154.069,183.568c-0.001,0-0.002,0-0.002,0c-2.858,0-5.176,2.316-5.178,5.174c-0.002,2.86,2.315,5.179,5.175,5.179
		c0.495,0.002,1.009,0.015,1.523,0.039c0.085,0.003,0.17,0.007,0.253,0.007c2.745,0,5.034-2.157,5.167-4.929
		c0.139-2.855-2.065-5.283-4.922-5.421C155.406,183.584,154.728,183.568,154.069,183.568z"/>
	<path d="M235.253,192.472c-2.017-1.19-4.581-0.878-6.255,0.761c-4.737,4.637-10.514,6.417-18.176,5.606
		c-7.552-0.798-15.803-3.884-24.534-7.153c-4.406-1.648-8.96-3.353-13.458-4.754c-2.731-0.849-5.634,0.677-6.482,3.407
		c-0.851,2.729,0.675,5.632,3.405,6.48c4.219,1.312,8.634,2.967,12.904,4.563c8.955,3.353,18.217,6.817,27.075,7.755
		c5.326,0.562,10.133,0.175,14.478-1.184c-6.895,15.755-22.693,26.596-40.605,26.596c-22.284,0-41.173-16.643-43.936-38.717
		c-0.229-1.832-0.345-3.704-0.345-5.563c0-18.49,11.655-35.2,29.004-41.578c2.037-0.748,3.391-2.688,3.391-4.859V98.881
		c0.036-0.245,0.061-0.492,0.061-0.747c0-2.86-2.319-5.179-5.178-5.179c-1.834,0-3.324-1.491-3.324-3.324
		c0-1.832,1.49-3.323,3.324-3.323h34.008c1.833,0,3.325,1.491,3.325,3.323c0,1.833-1.492,3.324-3.325,3.324h-17.004
		c-2.858,0-5.178,2.318-5.178,5.179c0,2.859,2.319,5.177,5.178,5.177h11.791l0.096,40.534c0.005,2.166,1.357,4.1,3.392,4.847
		c14.157,5.206,24.593,17.078,27.914,31.763c0.544,2.405,2.678,4.037,5.044,4.037c0.379,0,0.764-0.041,1.147-0.128
		c2.79-0.631,4.539-3.403,3.908-6.191c-2.006-8.874-6.264-17.188-12.312-24.04c-5.192-5.885-11.62-10.6-18.746-13.782l-0.089-38.043
		c5.002-2.039,8.54-6.951,8.54-12.676c0-7.542-6.136-13.68-13.681-13.68h-34.008c-7.543,0-13.68,6.138-13.68,13.68
		c0,5.689,3.49,10.578,8.442,12.637v38.082c-8.936,3.977-16.608,10.255-22.333,18.316c-6.583,9.27-10.063,20.197-10.063,31.604
		c0,2.288,0.145,4.594,0.426,6.851c3.411,27.243,26.716,47.786,54.211,47.786c13.308,0,26.131-4.842,36.105-13.63
		c9.864-8.691,16.266-20.61,18.029-33.576C238.052,195.635,237.087,193.555,235.253,192.472z"/>
</g>
</svg>
