<?xml version="1.0" encoding="UTF-8"?>
<!DOCTYPE svg PUBLIC "-//W3C//DTD SVG 1.1//EN" "http://www.w3.org/Graphics/SVG/1.1/DTD/svg11.dtd">
<!-- Creator: CorelDRAW -->
<svg xmlns="http://www.w3.org/2000/svg" xml:space="preserve" width="6.82666in" height="6.82666in" style="shape-rendering:geometricPrecision; text-rendering:geometricPrecision; image-rendering:optimizeQuality; fill-rule:evenodd; clip-rule:evenodd"
viewBox="0 0 6.82666 6.82666"
 xmlns:xlink="http://www.w3.org/1999/xlink">
 <defs>
  <style type="text/css">
   <![CDATA[
    .fil1 {fill:none}
    .fil0 {fill:#212121;fill-rule:nonzero}
   ]]>
  </style>
 </defs>
 <g id="Layer_x0020_1">
  <metadata id="CorelCorpID_0Corel-Layer"/>
  <path class="fil0" d="M0.96 1.11413c-0.0589094,0 -0.106669,0.0477598 -0.106669,0.106669 0,0.0589094 0.0477598,0.106669 0.106669,0.106669l0.671874 0 0.939748 3.50719 0.102917 -0.0275 -0.103031 0.0276063c0.0152441,0.0569016 0.0737362,0.0906693 0.130638,0.0754252 0.00177165,-0.000472441 0.00351969,-0.000992126 0.00524409,-0.00154724l3.18678 -0.853898c0.0568386,-0.015185 0.0906024,-0.0735787 0.0754173,-0.130417 -0.015185,-0.0568386 -0.0735787,-0.0906024 -0.130417,-0.0754173l-3.0893 0.82778 -0.931882 -3.47783c-0.0101181,-0.0483819 -0.0530197,-0.0847244 -0.104406,-0.0847244l-0.753579 0z"/>
  <path class="fil0" d="M2.73328 4.70049c0.13972,0 0.266228,0.0566417 0.357803,0.148217 0.0915748,0.0915748 0.148217,0.218083 0.148217,0.357803 0,0.13972 -0.0566417,0.266228 -0.148217,0.357803 -0.0915748,0.0915748 -0.218083,0.148217 -0.357803,0.148217 -0.13972,0 -0.266228,-0.0566417 -0.357803,-0.148217 -0.0915748,-0.0915748 -0.148217,-0.218083 -0.148217,-0.357803 0,-0.13972 0.0566417,-0.266228 0.148217,-0.357803 0.0915748,-0.0915748 0.218083,-0.148217 0.357803,-0.148217zm0.206969 0.299051c-0.0529567,-0.0529567 -0.126134,-0.0857126 -0.206969,-0.0857126 -0.0808346,0 -0.154012,0.0327559 -0.206969,0.0857126 -0.0529567,0.0529567 -0.0857126,0.126134 -0.0857126,0.206969 0,0.0808346 0.0327559,0.154012 0.0857126,0.206969 0.0529567,0.0529567 0.126134,0.0857126 0.206969,0.0857126 0.0808346,0 0.154012,-0.0327559 0.206969,-0.0857126 0.0529567,-0.0529567 0.0857126,-0.126134 0.0857126,-0.206969 0,-0.0808346 -0.0327559,-0.154012 -0.0857126,-0.206969z"/>
  <path class="fil0" d="M2.40514 2.35654l1.08513 -0.313811 0.0295827 0.102083 -0.0296339 -0.102469c0.0565906,-0.0163661 0.115736,0.0162441 0.132102,0.0728346 0.000637795,0.00220079 0.00118898,0.00440551 0.00167717,0.00661417l0.542484 1.8335 0.000255906 -7.48031e-005c0.0167126,0.0564882 -0.0155315,0.115835 -0.0720197,0.132547 -0.00313386,0.000925197 -0.00627559,0.00169685 -0.00941732,0.00232677l-1.08513 0.313811 -0.0295827 -0.102083 0.0296339 0.102469c-0.0565906,0.0163661 -0.115736,-0.0162441 -0.132102,-0.0728346 -0.000637795,-0.00220079 -0.00118898,-0.00440551 -0.00167717,-0.00661417l-0.542484 -1.8335 -0.000255906 7.48031e-005c-0.0167126,-0.0564882 0.0155315,-0.115835 0.0720197,-0.132547 0.00313386,-0.000925197 0.00627559,-0.00169685 0.00941732,-0.00232677zm1.04265 -0.080252l-0.889441 0.25722 0.484295 1.63683 0.889441 -0.25722 -0.484295 -1.63683z"/>
  <path class="fil0" d="M4.04361 2.1804l0.936362 -0.270787 0.0295827 0.102083 -0.0296339 -0.102469c0.0565906,-0.0163661 0.115736,0.0162441 0.132102,0.0728346 0.000637795,0.00220079 0.00118898,0.00440551 0.00167717,0.00661417l0.468417 1.58316 0.000255906 -7.48031e-005c0.0167126,0.0564882 -0.0155315,0.115835 -0.0720197,0.132547 -0.00313386,0.000925197 -0.00627559,0.00169685 -0.00941732,0.00232677l-0.936362 0.270787 -0.0295827 -0.102083 0.0296339 0.102469c-0.0565906,0.0163661 -0.115736,-0.0162441 -0.132102,-0.0728346 -0.000637795,-0.00220079 -0.00118898,-0.00440551 -0.00167717,-0.00661417l-0.468417 -1.58316 -0.000255906 7.48031e-005c-0.0167126,-0.0564882 0.0155315,-0.115835 0.0720197,-0.132547 0.00313386,-0.000925197 0.00627559,-0.00169685 0.00941732,-0.00232677zm0.893886 -0.0372283l-0.740673 0.214197 0.410228 1.3865 0.740673 -0.214197 -0.410228 -1.3865z"/>
 </g>
 <rect class="fil1" width="6.82666" height="6.82666"/>
</svg>
