<svg xmlns="http://www.w3.org/2000/svg" viewBox="0 0 32 32"><g id="lungs"><path d="M29.68,24.56l-.95-1.89A3,3,0,0,0,28,19.53l-.67-.68a3.06,3.06,0,0,0-.16-1.64l-1-2.54A4.21,4.21,0,0,0,22.23,12a4,4,0,0,0-1.52.3h0L19,10.59V10a1,1,0,0,0-2,0v1a1,1,0,0,0,.29.71l1.77,1.76a4.19,4.19,0,0,0-.8,1.37l-1.55-1.55a1,1,0,0,0-1.42,0l-1.55,1.55a4.19,4.19,0,0,0-.8-1.37l1.77-1.76A1,1,0,0,0,15,11V5.17A.18.18,0,0,1,15.17,5h1.66a.18.18,0,0,1,.17.17V6a1,1,0,0,0,2,0V5.17A2.18,2.18,0,0,0,16.83,3H15.17A2.18,2.18,0,0,0,13,5.17v5.42l-1.71,1.7h0A4,4,0,0,0,9.77,12a4.21,4.21,0,0,0-3.93,2.67l-1,2.53a3.1,3.1,0,0,0-.16,1.65L4,19.53a3,3,0,0,0-.72,3.14l-1,1.89a3.08,3.08,0,0,0,1.77,4.28,3,3,0,0,0,1,.16,3.14,3.14,0,0,0,1.79-.57l1.73-1.25a1,1,0,0,0-1.16-1.62L5.68,26.8a1.07,1.07,0,0,1-1.57-1.35l.49-1,.1.1a1,1,0,0,0,.71.3,1,1,0,0,0,.7-.3,1,1,0,0,0,0-1.41l-.71-.71a1.07,1.07,0,0,1,0-1.52l.09-.09.1.21a1,1,0,1,0,1.79-.89l-.67-1.34a1.08,1.08,0,0,1,0-.88l1-2.54a2.23,2.23,0,0,1,4.31.83v5a2,2,0,0,1-.81,1.59A1,1,0,0,0,11,24.25a1,1,0,0,0,.81.42,1,1,0,0,0,.58-.19A4,4,0,0,0,14,21.27V17.41l2-2,2,2v3.86a4,4,0,0,0,1.65,3.21l5.5,3.95a3.14,3.14,0,0,0,1.79.57,2.89,2.89,0,0,0,1-.16,3,3,0,0,0,1.86-1.73A3.07,3.07,0,0,0,29.68,24.56Zm-1.76,1.78a1.05,1.05,0,0,1-1.6.46l-5.51-3.94A2,2,0,0,1,20,21.27v-5a2.23,2.23,0,0,1,4.31-.83l1,2.54a1.06,1.06,0,0,1,0,.87l-.67,1.35a1,1,0,0,0,1.79.89l.1-.21.09.09a1.07,1.07,0,0,1,0,1.52l-.71.71a1,1,0,0,0,0,1.41,1,1,0,0,0,.7.3,1,1,0,0,0,.71-.3l.1-.1.49,1A1.06,1.06,0,0,1,27.92,26.34Z"/></g></svg>