<?xml version="1.0" encoding="utf-8"?>
<!-- Generator: Adobe Illustrator 16.0.0, SVG Export Plug-In . SVG Version: 6.00 Build 0)  -->
<!DOCTYPE svg PUBLIC "-//W3C//DTD SVG 1.0//EN" "http://www.w3.org/TR/2001/REC-SVG-20010904/DTD/svg10.dtd">
<svg version="1.0" id="Layer_1" xmlns="http://www.w3.org/2000/svg" xmlns:xlink="http://www.w3.org/1999/xlink" x="0px" y="0px"
	 width="100px" height="100px" viewBox="0 0 100 100" enable-background="new 0 0 100 100" xml:space="preserve">
<path d="M90,59.999c-4.994,0-9.59,1.647-13.334,4.401c-3.744-2.754-8.34-4.401-13.334-4.401v21.334c4.994,0,9.59,1.992,13.334,5.332
	c3.744-3.34,8.34-5.332,13.334-5.332V59.999z"/>
<path d="M70,13.333H16.667C13,13.333,10,16.335,10,20v39.999c0,3.665,3,6.667,6.667,6.667H40v6.666H30v6.667h26.666v-6.667h-10
	v-6.666h10V53.333h6.666c4.686,0,9.219,1.106,13.334,3.235V20C76.666,16.335,73.664,13.333,70,13.333z M36.179,42.356l-9.31,9.31
	l-3.535-3.535L31.465,40l-8.131-8.131l3.535-3.535l9.31,9.31C37.48,38.945,37.48,41.054,36.179,42.356z M63.332,42.5H43.333v-5
	h19.999V42.5z"/>
</svg>
