<?xml version="1.0" encoding="utf-8"?>
<!-- Generator: Adobe Illustrator 16.0.0, SVG Export Plug-In . SVG Version: 6.00 Build 0)  -->
<!DOCTYPE svg PUBLIC "-//W3C//DTD SVG 1.0//EN" "http://www.w3.org/TR/2001/REC-SVG-20010904/DTD/svg10.dtd">
<svg version="1.0" id="Layer_1" xmlns="http://www.w3.org/2000/svg" xmlns:xlink="http://www.w3.org/1999/xlink" x="0px" y="0px"
	 width="100px" height="100px" viewBox="0 0 100 100" enable-background="new 0 0 100 100" xml:space="preserve">
<path fill="#00B8D4" d="M36.179,37.645l-9.311-9.31l-3.535,3.535l8.131,8.131l-8.131,8.131l3.535,3.535l9.311-9.31
	C37.48,41.056,37.48,38.946,36.179,37.645z"/>
<rect x="43.333" y="37.501" fill="#00B8D4" width="19.999" height="5"/>
<path fill="#00B8D4" d="M73.332,58.786c-4.678-3.413-10.427-5.452-16.667-5.452v26.665c6.24,0,11.989,2.494,16.667,6.667
	C78.01,82.493,83.76,79.999,90,79.999V53.334C83.76,53.334,78.01,55.373,73.332,58.786z M69.999,76.479
	c-2.146-1.049-4.378-1.797-6.667-2.318V61.066c2.401,0.781,4.656,1.983,6.667,3.572V76.479z M83.331,74.159
	c-2.287,0.521-4.521,1.271-6.665,2.317V64.639c2.011-1.589,4.264-2.789,6.665-3.57V74.159z"/>
<path fill="#020202" d="M46.666,73.333v-6.667h9.999V60H16.667V20.001h53.332v36.692c1.16,0.624,2.275,1.321,3.333,2.093
	c1.059-0.771,2.173-1.469,3.334-2.093V20.001c0-3.667-3.002-6.667-6.667-6.667H16.667C13,13.335,10,16.334,10,20.001V60
	c0,3.666,3,6.666,6.667,6.666H40v6.667H30v6.666h26.665v-6.666H46.666z"/>
</svg>
