<svg xmlns="http://www.w3.org/2000/svg" viewBox="0 0 64 64"><title>Artboard-1</title><g id="Smartphone_Locked" data-name="Smartphone Locked"><path d="M47,0H17a5.0059,5.0059,0,0,0-5,5V59a5.0059,5.0059,0,0,0,5,5H47a5.0059,5.0059,0,0,0,5-5V5A5.0059,5.0059,0,0,0,47,0ZM17,2H47a3.0033,3.0033,0,0,1,3,3V8H14V5A3.0033,3.0033,0,0,1,17,2ZM50,54H14V10H50Zm-3,8H17a3.0033,3.0033,0,0,1-3-3V56H50v3A3.0033,3.0033,0,0,1,47,62Z" style="fill:#19191c"/><path d="M46,6h1a1,1,0,0,0,0-2H46a1,1,0,0,0,0,2Z" style="fill:#19191c"/><path d="M39,6h4a1,1,0,0,0,0-2H39a1,1,0,0,0,0,2Z" style="fill:#19191c"/><path d="M34,58H30a1,1,0,0,0,0,2h4a1,1,0,0,0,0-2Z" style="fill:#19191c"/><path d="M25,46H39a3.0033,3.0033,0,0,0,3-3V30a3.0033,3.0033,0,0,0-3-3H38V24a6,6,0,0,0-12,0v3H25a3.0033,3.0033,0,0,0-3,3V43A3.0033,3.0033,0,0,0,25,46Zm3-22a4,4,0,0,1,8,0v3H28Zm-4,6a1.0013,1.0013,0,0,1,1-1H39a1.0013,1.0013,0,0,1,1,1V43a1.0013,1.0013,0,0,1-1,1H25a1.0013,1.0013,0,0,1-1-1Z" style="fill:#19191c"/><path d="M31,37.8157V40a1,1,0,0,0,2,0V37.8157a3,3,0,1,0-2,0ZM32,34a1,1,0,1,1-1,1A1.0013,1.0013,0,0,1,32,34Z" style="fill:#19191c"/></g></svg>