<?xml version="1.0" encoding="UTF-8" standalone="no"?>
<svg
   width="135.21416"
   height="140.44156"
   viewBox="0 0 135.21416 140.44156"
   version="1.1"
   xml:space="preserve"
   style="clip-rule:evenodd;fill-rule:evenodd;stroke-linecap:round;stroke-linejoin:round;stroke-miterlimit:2"
   id="svg25"
   sodipodi:docname="seguros.svg"
   inkscape:version="1.1.2 (0a00cf5339, 2022-02-04, custom)"
   xmlns:inkscape="http://www.inkscape.org/namespaces/inkscape"
   xmlns:sodipodi="http://sodipodi.sourceforge.net/DTD/sodipodi-0.dtd"
   xmlns="http://www.w3.org/2000/svg"
   xmlns:svg="http://www.w3.org/2000/svg"
   xmlns:rdf="http://www.w3.org/1999/02/22-rdf-syntax-ns#"
   xmlns:cc="http://creativecommons.org/ns#"
   xmlns:dc="http://purl.org/dc/elements/1.1/"><sodipodi:namedview
   id="namedview16"
   pagecolor="#505050"
   bordercolor="#ffffff"
   borderopacity="1"
   inkscape:pageshadow="0"
   inkscape:pageopacity="0"
   inkscape:pagecheckerboard="1"
   showgrid="false"
   inkscape:zoom="6.8203125"
   inkscape:cx="34.455899"
   inkscape:cy="84.673539"
   inkscape:window-width="3440"
   inkscape:window-height="1440"
   inkscape:window-x="0"
   inkscape:window-y="0"
   inkscape:window-maximized="1"
   inkscape:current-layer="svg25"
   lock-margins="true"
   fit-margin-top="5"
   fit-margin-left="5"
   fit-margin-right="5"
   fit-margin-bottom="5" />
  <metadata
   id="metadata31">
    <rdf:RDF>
      <cc:Work
   rdf:about="">
        <dc:format>image/svg+xml</dc:format>

        <dc:type
   rdf:resource="http://purl.org/dc/dcmitype/StillImage" />

      </cc:Work>

    </rdf:RDF>

  </metadata>

  <defs
   id="defs29" />

  
  

  

  

  

  

  

  

  

  

  

  <g
   id="g844"
   style="stroke:#ffffff"
   inkscape:export-filename="/run/media/alf/datos/web/ingenieria-matematica/static/images/icons/seguros-blanco.png"
   inkscape:export-xdpi="109.468"
   inkscape:export-ydpi="109.468"
   transform="matrix(2.4079646,0,0,2.4436868,-9.4477876,-4.7747472)"><path
     d="M 13,50 V 48.151 C 13,47.456 12.735,46.787 12.259,46.281 11.251,45.209 9.433,43.276 8.221,41.988 7.437,41.154 7,40.052 7,38.907 7,35.191 7,26.582 7,21.998 7,20.342 8.342,19 9.998,19 c 0.001,0 0.003,0 0.004,0 0.795,0 1.558,0.316 2.12,0.878 C 12.684,20.44 13,21.203 13,21.998 13,24.269 13,27 13,27"
     style="fill:none;stroke:#ffffff;stroke-width:2px"
     id="path3" /><path
     d="m 51,50 v -1.849 c 0,-0.695 0.265,-1.364 0.741,-1.87 1.008,-1.072 2.826,-3.005 4.038,-4.293 C 56.563,41.154 57,40.052 57,38.907 57,35.191 57,26.582 57,21.998 57,20.342 55.658,19 54.002,19 c -0.001,0 -0.003,0 -0.004,0 -0.795,0 -1.558,0.316 -2.12,0.878 C 51.316,20.44 51,21.203 51,21.998 51,24.269 51,27 51,27"
     style="fill:none;stroke:#ffffff;stroke-width:2px"
     id="path5" /><path
     d="M 29,56.379 V 51.446 C 29,51.063 28.848,50.695 28.576,50.424 28.305,50.152 27.937,50 27.554,50 c -3.21,0 -10.898,0 -14.108,0 -0.383,0 -0.751,0.152 -1.022,0.424 C 12.152,50.695 12,51.063 12,51.446 c 0,1.882 0,4.933 0,4.933"
     style="fill:none;stroke:#ffffff;stroke-width:2px"
     id="path7" /><path
     d="m 35,56.379 v -4.933 c 0,-0.383 0.152,-0.751 0.424,-1.022 C 35.695,50.152 36.063,50 36.446,50 c 3.21,0 10.898,0 14.108,0 0.383,0 0.751,0.152 1.022,0.424 0.272,0.271 0.424,0.639 0.424,1.022 0,1.882 0,4.933 0,4.933"
     style="fill:none;stroke:#ffffff;stroke-width:2px"
     id="path9" /><path
     d="m 28,50 v -5.491 c 0,-2.439 -1,-4.771 -2.767,-6.453 -2.287,-2.177 -5.476,-5.212 -7.49,-7.13 -1.066,-1.014 -2.745,-0.993 -3.785,0.047 -10e-4,0.001 -10e-4,0.001 -0.002,0.002 -1.08,1.08 -1.08,2.832 0,3.912 1.908,1.909 4.527,4.527 4.527,4.527"
     style="fill:none;stroke:#ffffff;stroke-width:2px"
     id="path11" /><path
     d="m 36,50 v -5.491 c 0,-2.439 1,-4.771 2.767,-6.453 2.287,-2.177 5.476,-5.212 7.49,-7.13 1.066,-1.014 2.745,-0.993 3.785,0.047 10e-4,0.001 10e-4,0.001 0.002,0.002 1.08,1.08 1.08,2.832 0,3.912 -1.908,1.909 -4.527,4.527 -4.527,4.527"
     style="fill:none;stroke:#ffffff;stroke-width:2px"
     id="path13" /><circle
     cx="32"
     cy="17.5"
     r="12.5"
     style="fill:none;stroke:#ffffff;stroke-width:2px"
     id="circle15" /><path
     d="m 22.669,15.724 c 0.517,-2.707 2.202,-5.169 4.813,-6.581"
     style="fill:none;stroke:#ffffff;stroke-width:2px"
     id="path17" /><path
     d="m 34,13.5 c -0.457,-0.607 -1.183,-1 -2,-1 -1.38,0 -2.5,1.12 -2.5,2.5 0,1.38 1.12,2.5 2.5,2.5 1.38,0 2.5,1.12 2.5,2.5 0,1.38 -1.12,2.5 -2.5,2.5 -0.817,0 -1.543,-0.393 -2,-1"
     style="fill:none;stroke:#ffffff;stroke-width:2px"
     id="path19" /><path
     d="m 32,12.5 v -2"
     style="fill:none;stroke:#ffffff;stroke-width:2px"
     id="path21" /><path
     d="m 32,24.5 v -2"
     style="fill:none;stroke:#ffffff;stroke-width:2px"
     id="path23" /></g>

</svg>
