<svg xmlns="http://www.w3.org/2000/svg" viewBox="0 0 48 48"><title>Telephone fax</title><g id="Telephone_fax" data-name="Telephone fax"><path d="M45,10H42V4a1,1,0,0,0-1-1H23a1,1,0,0,0-1,1v6H18a3,3,0,0,0-3-3H9a3,3,0,0,0-3,3H3a3,3,0,0,0-3,3V39a3,3,0,0,0,3,3H6a3,3,0,0,0,3,3h6a3,3,0,0,0,3-3H45c2.06,0,3-3.84,3-5V13A3,3,0,0,0,45,10ZM24,5H40v9H24ZM3,40a1,1,0,0,1-1-1V13a1,1,0,0,1,1-1H6c0,2.37-.11,3,.32,3.87C6.89,17,7,17.14,7,17.47,7,36,7.05,34.66,6.89,35c-1,2.1-.89,1.41-.89,5Zm12,3H9a1,1,0,0,1-1-1c0-4.9,0-4.68.11-5A5.38,5.38,0,0,0,9,34.53c0-18.42.13-17.5-.32-18.4C7.77,14.31,8,15.66,8,10A1,1,0,0,1,9,9h6a1,1,0,0,1,1,1c0,5.66.23,4.31-.68,6.13C14.86,17,15,16,15,34.53a5.22,5.22,0,0,0,.9,2.5c.14.28.1,0,.1,5A1,1,0,0,1,15,43Zm31-6a5.81,5.81,0,0,1-1.09,3H18c0-2.37.11-3-.32-3.87C17.12,35,17,34.86,17,34.53,17,16,17,17.34,17.11,17c1-2.1.89-1.41.89-5h4v2H21a1,1,0,0,0,0,2H43a1,1,0,0,0,0-2H42V12h3a1,1,0,0,1,1,1Z"/><path d="M40,18H24a1,1,0,0,0-1,1v6a1,1,0,0,0,1,1H40a1,1,0,0,0,1-1V19A1,1,0,0,0,40,18Zm-1,6H25V20H39Z"/><path d="M33,28H31a1,1,0,0,0,0,2h2A1,1,0,0,0,33,28Z"/><path d="M39,28H37a1,1,0,0,0,0,2h2A1,1,0,0,0,39,28Z"/><path d="M33,32H31a1,1,0,0,0,0,2h2A1,1,0,0,0,33,32Z"/><path d="M39,32H37a1,1,0,0,0,0,2h2A1,1,0,0,0,39,32Z"/><path d="M33,36H31a1,1,0,0,0,0,2h2A1,1,0,0,0,33,36Z"/><path d="M39,36H37a1,1,0,0,0,0,2h2A1,1,0,0,0,39,36Z"/><path d="M27,28H25a1,1,0,0,0,0,2h2A1,1,0,0,0,27,28Z"/><path d="M27,32H25a1,1,0,0,0,0,2h2A1,1,0,0,0,27,32Z"/><path d="M27,36H25a1,1,0,0,0,0,2h2A1,1,0,0,0,27,36Z"/></g></svg>