<svg xmlns="http://www.w3.org/2000/svg" xmlns:xlink="http://www.w3.org/1999/xlink" viewBox="0 0 64 64"><defs><style>.cls-1{fill:url(#linear-gradient);}.cls-2{fill:url(#linear-gradient-2);}.cls-3{fill:url(#linear-gradient-3);}.cls-4{fill:url(#linear-gradient-4);}.cls-5{fill:url(#linear-gradient-5);}.cls-6{fill:url(#linear-gradient-6);}.cls-7{fill:url(#linear-gradient-7);}.cls-8{fill:url(#linear-gradient-8);}.cls-9{fill:#eb7f58;}</style><linearGradient id="linear-gradient" x1="25.35" y1="29" x2="44.64" y2="29" gradientUnits="userSpaceOnUse"><stop offset="0" stop-color="#fe9661"/><stop offset="1" stop-color="#ffb369"/></linearGradient><linearGradient id="linear-gradient-2" x1="19.35" y1="35" x2="38.64" y2="35" xlink:href="#linear-gradient"/><linearGradient id="linear-gradient-3" x1="3.08" y1="50" x2="24.91" y2="50" xlink:href="#linear-gradient"/><linearGradient id="linear-gradient-4" x1="40.08" y1="14" x2="59.91" y2="14" xlink:href="#linear-gradient"/><linearGradient id="linear-gradient-5" x1="17.08" y1="28.87" x2="61" y2="28.87" gradientUnits="userSpaceOnUse"><stop offset="0" stop-color="#54a5ff"/><stop offset="1" stop-color="#8ad3fe"/></linearGradient><linearGradient id="linear-gradient-6" x1="40.8" y1="20.16" x2="40.8" y2="3" xlink:href="#linear-gradient-5"/><linearGradient id="linear-gradient-7" x1="46.92" y1="35.13" x2="3" y2="35.13" xlink:href="#linear-gradient-5"/><linearGradient id="linear-gradient-8" x1="23.2" y1="43.84" x2="23.2" y2="61" xlink:href="#linear-gradient-5"/></defs><title>Biology</title><g id="Biology"><path class="cls-1" d="M43.64,38.64c-.6,0,.75,1.16-18-17.57a1,1,0,0,1,1.42-1.42L44.35,36.93A1,1,0,0,1,43.64,38.64Z"/><path class="cls-2" d="M37.64,44.64c-.6,0,.75,1.16-18-17.57a1,1,0,0,1,1.42-1.42L38.35,42.93A1,1,0,0,1,37.64,44.64Z"/><path class="cls-3" d="M23.91,60.91c-.61,0,.94,1.36-20.53-20.11A1,1,0,0,1,4.8,39.38L24.62,59.2A1,1,0,0,1,23.91,60.91Z"/><path class="cls-4" d="M58.91,23.91c-.61,0,.75,1.16-18.53-18.11A1,1,0,0,1,41.8,4.38L59.62,22.2A1,1,0,0,1,58.91,23.91Z"/><path class="cls-5" d="M61,20h0c-4.06,4.07-10.38,2.31-17.15.18h0c-8.2-2.56-17-5.64-23.15.54-5.05,5-3.9,12-2,18.54l4.62,1.43c-2.14-6.76-3.89-13.08.17-17.15,8.3-8.28,25.88,7.66,37.49,1.41Z"/><path class="cls-6" d="M44,3h0c-5.37,5.36-.18,15.89-.18,17.15l-4.61-1.44C37.64,13.29,36.58,7.64,39.08,3Z"/><path class="cls-7" d="M3,44H3c9-9,29,10.58,40.3-.71,5-5,3.9-12,2-18.54l-4.62-1.43c2.14,6.76,3.89,13.08-.17,17.15C32.18,48.78,14.59,32.83,3,39.08Z"/><path class="cls-8" d="M20,61h0c4.07-4.06,2.31-10.38.18-17.15-.1,0,.18.06,4.61,1.44,1.59,5.43,2.65,11.08.15,15.72Z"/><circle class="cls-9" cx="37" cy="31" r="2"/><circle class="cls-9" cx="48" cy="12" r="2"/><circle class="cls-9" cx="16" cy="52" r="2"/><circle class="cls-9" cx="27" cy="33" r="2"/></g></svg>