<?xml version="1.0" encoding="UTF-8" standalone="no"?>
<svg
   viewBox="0 0 131.86984 131.74138"
   version="1.1"
   id="svg58"
   sodipodi:docname="finanzas.svg"
   inkscape:version="1.1.2 (0a00cf5339, 2022-02-04, custom)"
   width="131.86984"
   height="131.74138"
   inkscape:export-filename="/run/media/alf/datos/web/ingenieria-matematica/static/images/icons/finanzas-blanco.png.png"
   inkscape:export-xdpi="109.468"
   inkscape:export-ydpi="109.468"
   xmlns:inkscape="http://www.inkscape.org/namespaces/inkscape"
   xmlns:sodipodi="http://sodipodi.sourceforge.net/DTD/sodipodi-0.dtd"
   xmlns="http://www.w3.org/2000/svg"
   xmlns:svg="http://www.w3.org/2000/svg"
   xmlns:rdf="http://www.w3.org/1999/02/22-rdf-syntax-ns#"
   xmlns:cc="http://creativecommons.org/ns#"
   xmlns:dc="http://purl.org/dc/elements/1.1/">
  <sodipodi:namedview
     id="namedview60"
     pagecolor="#505050"
     bordercolor="#ffffff"
     borderopacity="1"
     inkscape:pageshadow="0"
     inkscape:pageopacity="0"
     inkscape:pagecheckerboard="1"
     showgrid="false"
     inkscape:zoom="3.2151261"
     inkscape:cx="-70.603762"
     inkscape:cy="55.985362"
     inkscape:window-width="913"
     inkscape:window-height="328"
     inkscape:window-x="0"
     inkscape:window-y="720"
     inkscape:window-maximized="1"
     inkscape:current-layer="svg58"
     lock-margins="true"
     fit-margin-top="10"
     fit-margin-left="10"
     fit-margin-right="10"
     fit-margin-bottom="10" />
  <defs
     id="defs4">
    <style
       id="style2">.cls-1{fill:#201602;}</style>
  </defs>
  <title
     id="title6">Asset 20ldpi</title>
  <metadata
     id="metadata877">
    <rdf:RDF>
      <cc:Work
         rdf:about="">
        <dc:title>Asset 20ldpi</dc:title>
      </cc:Work>
    </rdf:RDF>
  </metadata>
  <g
     id="g935"
     data-name="Layer 2"
     style="fill:#ffffff;stroke:#ffffff"
     transform="matrix(2.2804364,0,0,2.2804364,11.26868,11.140218)"
     inkscape:export-filename="/run/media/alf/datos/web/ingenieria-matematica/static/images/icons/finanzas-blanco.png"
     inkscape:export-xdpi="109.468"
     inkscape:export-ydpi="109.468">
    <g
       id="g933"
       data-name="layer 1"
       style="fill:#ffffff;stroke:#ffffff">
      <rect
         class="cls-1"
         x="35.470001"
         y="4.4899998"
         width="13.28"
         height="2"
         transform="rotate(-42.59,42.100967,5.4903708)"
         id="rect885"
         style="fill:#ffffff;stroke:#ffffff" />
      <path
         class="cls-1"
         d="m 20.24,17.76 -1.79,-0.89 4.66,-9.32 a 1,1 0 0 1 1.23,-0.49 l 8.18,3 -0.68,1.87 -7.34,-2.69 z"
         id="path887"
         style="fill:#ffffff;stroke:#ffffff" />
      <path
         class="cls-1"
         d="m 1.88,30.47 -1.76,-0.94 8,-15 a 1,1 0 0 1 0.6,-0.49 1,1 0 0 1 0.77,0.09 l 6.37,3.54 -1,1.75 -5.46,-3.05 z"
         id="path889"
         style="fill:#ffffff;stroke:#ffffff" />
      <path
         class="cls-1"
         d="M 48,9 H 46 V 2 H 39 V 0 h 8 a 1,1 0 0 1 1,1 z"
         id="path891"
         style="fill:#ffffff;stroke:#ffffff" />
      <path
         class="cls-1"
         d="m 35,16 a 4,4 0 1 1 4,-4 4,4 0 0 1 -4,4 z m 0,-6 a 2,2 0 1 0 2,2 2,2 0 0 0 -2,-2 z"
         id="path893"
         style="fill:#ffffff;stroke:#ffffff" />
      <path
         class="cls-1"
         d="m 18,24 a 4,4 0 1 1 4,-4 4,4 0 0 1 -4,4 z m 0,-6 a 2,2 0 1 0 2,2 2,2 0 0 0 -2,-2 z"
         id="path895"
         style="fill:#ffffff;stroke:#ffffff" />
      <rect
         class="cls-1"
         x="19"
         y="46"
         width="12"
         height="2"
         id="rect897"
         style="fill:#ffffff;stroke:#ffffff" />
      <rect
         class="cls-1"
         x="36"
         y="46"
         width="12"
         height="2"
         id="rect899"
         style="fill:#ffffff;stroke:#ffffff" />
      <rect
         class="cls-1"
         y="46"
         width="12"
         height="2"
         id="rect901"
         x="0"
         style="fill:#ffffff;stroke:#ffffff" />
      <rect
         class="cls-1"
         x="17"
         y="42"
         width="12"
         height="2"
         id="rect903"
         style="fill:#ffffff;stroke:#ffffff" />
      <rect
         class="cls-1"
         x="35"
         y="42"
         width="12"
         height="2"
         id="rect905"
         style="fill:#ffffff;stroke:#ffffff" />
      <rect
         class="cls-1"
         x="1"
         y="42"
         width="12"
         height="2"
         id="rect907"
         style="fill:#ffffff;stroke:#ffffff" />
      <rect
         class="cls-1"
         x="19"
         y="38"
         width="12"
         height="2"
         id="rect909"
         style="fill:#ffffff;stroke:#ffffff" />
      <rect
         class="cls-1"
         x="36"
         y="38"
         width="12"
         height="2"
         id="rect911"
         style="fill:#ffffff;stroke:#ffffff" />
      <rect
         class="cls-1"
         y="38"
         width="12"
         height="2"
         id="rect913"
         x="0"
         style="fill:#ffffff;stroke:#ffffff" />
      <rect
         class="cls-1"
         y="34"
         width="12"
         height="2"
         id="rect915"
         x="0"
         style="fill:#ffffff;stroke:#ffffff" />
      <rect
         class="cls-1"
         x="18"
         y="34"
         width="12"
         height="2"
         id="rect917"
         style="fill:#ffffff;stroke:#ffffff" />
      <rect
         class="cls-1"
         x="34"
         y="34"
         width="12"
         height="2"
         id="rect919"
         style="fill:#ffffff;stroke:#ffffff" />
      <rect
         class="cls-1"
         x="17"
         y="30"
         width="12"
         height="2"
         id="rect921"
         style="fill:#ffffff;stroke:#ffffff" />
      <rect
         class="cls-1"
         x="18"
         y="26"
         width="12"
         height="2"
         id="rect923"
         style="fill:#ffffff;stroke:#ffffff" />
      <rect
         class="cls-1"
         x="35"
         y="30"
         width="12"
         height="2"
         id="rect925"
         style="fill:#ffffff;stroke:#ffffff" />
      <rect
         class="cls-1"
         x="35"
         y="26"
         width="12"
         height="2"
         id="rect927"
         style="fill:#ffffff;stroke:#ffffff" />
      <rect
         class="cls-1"
         x="36"
         y="22"
         width="12"
         height="2"
         id="rect929"
         style="fill:#ffffff;stroke:#ffffff" />
      <rect
         class="cls-1"
         x="35"
         y="18"
         width="12"
         height="2"
         id="rect931"
         style="fill:#ffffff;stroke:#ffffff" />
    </g>
  </g>
</svg>
