<svg xmlns="http://www.w3.org/2000/svg" viewBox="0 0 64 64"><defs><style>.cls-1{fill:#d0d7dc;}.cls-2{fill:#b2b9bf;}.cls-3{fill:#7c828d;}.cls-4{fill:#fc9b28;}.cls-5{fill:#ffd24f;}.cls-6{fill:#29394a;}</style></defs><title>03-factory</title><g id="_03-factory" data-name="03-factory"><path class="cls-1" d="M15,13V23H5S5,13,15,13Z"/><path class="cls-1" d="M29,13V23H19S19,13,29,13Z"/><path class="cls-1" d="M63,35V63H53V51H39V63H29V35H63ZM58,46V42a2.015,2.015,0,0,0-2-2,2.006,2.006,0,0,0-2,2v4ZM48,46V42a2.015,2.015,0,0,0-2-2,2.006,2.006,0,0,0-2,2v4ZM38,46V42a2.015,2.015,0,0,0-2-2,2.006,2.006,0,0,0-2,2v4Z"/><path class="cls-2" d="M29,35V63H1V23H29ZM22,57V53a2.015,2.015,0,0,0-2-2,2.006,2.006,0,0,0-2,2v4Zm0-11V42a2.015,2.015,0,0,0-2-2,2.006,2.006,0,0,0-2,2v4Zm0-11V31a2.015,2.015,0,0,0-2-2,2.006,2.006,0,0,0-2,2v4ZM12,57V53a2.015,2.015,0,0,0-2-2,2.006,2.006,0,0,0-2,2v4Zm0-11V42a2.015,2.015,0,0,0-2-2,2.006,2.006,0,0,0-2,2v4Zm0-11V31a2.015,2.015,0,0,0-2-2,2.006,2.006,0,0,0-2,2v4Z"/><polygon class="cls-3" points="59.81 30 60 35 54 35 54.19 30 59.81 30"/><polygon class="cls-4" points="59.65 26 59.81 30 54.19 30 54.35 26 59.65 26"/><polygon class="cls-3" points="59.5 22 59.65 26 54.35 26 54.5 22 59.5 22"/><polygon class="cls-4" points="59.35 18 59.5 22 54.5 22 54.65 18 59.35 18"/><polygon class="cls-3" points="59 9 59.35 18 54.65 18 55 9 59 9"/><path class="cls-5" d="M58,42v4H54V42a2.006,2.006,0,0,1,2-2,2.015,2.015,0,0,1,2,2Z"/><rect class="cls-5" x="39" y="51" width="14" height="12"/><polygon class="cls-3" points="49.83 30 50 35 44 35 44.17 30 49.83 30"/><polygon class="cls-4" points="49.7 26 49.83 30 44.17 30 44.3 26 49.7 26"/><polygon class="cls-3" points="49.57 22 49.7 26 44.3 26 44.43 22 49.57 22"/><polygon class="cls-4" points="49.43 18 49.57 22 44.43 22 44.57 18 49.43 18"/><polygon class="cls-3" points="49 5 49.43 18 44.57 18 45 5 49 5"/><path class="cls-5" d="M48,42v4H44V42a2.006,2.006,0,0,1,2-2,2.015,2.015,0,0,1,2,2Z"/><polygon class="cls-3" points="39.85 30 40 35 34 35 34.15 30 39.85 30"/><polygon class="cls-4" points="39.74 26 39.85 30 34.15 30 34.26 26 39.74 26"/><polygon class="cls-3" points="39.62 22 39.74 26 34.26 26 34.38 22 39.62 22"/><polygon class="cls-4" points="39.5 18 39.62 22 34.38 22 34.5 18 39.5 18"/><polygon class="cls-3" points="39 1 39.5 18 34.5 18 35 1 39 1"/><path class="cls-5" d="M38,42v4H34V42a2.006,2.006,0,0,1,2-2,2.015,2.015,0,0,1,2,2Z"/><path class="cls-3" d="M29,9v4C19,13,19,23,19,23H15S15,9,29,9Z"/><path class="cls-5" d="M22,53v4H18V53a2.006,2.006,0,0,1,2-2,2.015,2.015,0,0,1,2,2Z"/><path class="cls-5" d="M22,42v4H18V42a2.006,2.006,0,0,1,2-2,2.015,2.015,0,0,1,2,2Z"/><path class="cls-5" d="M22,31v4H18V31a2.006,2.006,0,0,1,2-2,2.015,2.015,0,0,1,2,2Z"/><path class="cls-3" d="M15,9v4C5,13,5,23,5,23H1S1,9,15,9Z"/><path class="cls-5" d="M12,53v4H8V53a2.006,2.006,0,0,1,2-2,2.015,2.015,0,0,1,2,2Z"/><path class="cls-5" d="M12,42v4H8V42a2.006,2.006,0,0,1,2-2,2.015,2.015,0,0,1,2,2Z"/><path class="cls-5" d="M12,31v4H8V31a2.006,2.006,0,0,1,2-2,2.015,2.015,0,0,1,2,2Z"/><path class="cls-6" d="M63,34H60.962l-.613-16.038h0l-.35-9A1,1,0,0,0,59,8H55a1,1,0,0,0-1,.961L53.038,34H50.967L50,4.967A1,1,0,0,0,49,4H45a1,1,0,0,0-1,.967L43.033,34H40.971L40,.971A1,1,0,0,0,39,0H35a1,1,0,0,0-1,.971L33.029,34H30V9a1,1,0,0,0-1-1c-7.34,0-11.086,3.638-13,7.331V9a1,1,0,0,0-1-1C.171,8,0,22.85,0,23V63a1,1,0,0,0,1,1H63a1,1,0,0,0,1-1V35A1,1,0,0,0,63,34Zm-4.039,0H55.039l.115-3h3.692Zm-.5-13H55.539l.077-2h2.768Zm.077,2,.077,2h-3.23l.077-2Zm.154,4,.077,2H55.231l.077-2Zm-.654-17,.269,7H55.693l.269-7ZM48.966,34H45.034l.1-3h3.731Zm-.5-15,.067,2H45.468l.066-2Zm.134,4,.067,2h-3.33l.067-2Zm.134,4,.067,2H45.2l.067-2Zm-.7-21L48.4,17H45.6l.367-11ZM38.97,34H35.03l.088-3h3.763Zm-.441-15,.058,2H35.412l.059-2Zm.117,4,.059,2H35.3l.059-2Zm.118,4,.059,2H35.177l.059-2ZM38.029,2l.441,15H35.53l.441-15ZM28,22H20.073c.274-2.237,1.612-7.429,7.927-7.938Zm0-11.974v2.006c-8.028.526-9.611,7.363-9.923,9.968H16.059C16.347,19.031,18.043,10.559,28,10.026ZM6.073,22c.274-2.237,1.612-7.429,7.927-7.938V22ZM14,10.026v2.006C5.972,12.558,4.389,19.4,4.077,22H2.059C2.347,19.031,4.043,10.559,14,10.026ZM28,62H2V24H28Zm24,0H40V52H52Zm10,0H54V51a1,1,0,0,0-1-1H39a1,1,0,0,0-1,1V62H30V36H62Z"/><path class="cls-6" d="M8,36h4a1,1,0,0,0,1-1V31a3.015,3.015,0,0,0-3-3,3,3,0,0,0-3,3v4A1,1,0,0,0,8,36Zm1-5a1,1,0,0,1,1-1,.974.974,0,0,1,.712.306A.957.957,0,0,1,11,31v3H9Z"/><path class="cls-6" d="M18,36h4a1,1,0,0,0,1-1V31a3.015,3.015,0,0,0-3-3,3,3,0,0,0-3,3v4A1,1,0,0,0,18,36Zm1-5a1,1,0,0,1,1-1,.974.974,0,0,1,.712.306A.957.957,0,0,1,21,31v3H19Z"/><path class="cls-6" d="M8,47h4a1,1,0,0,0,1-1V42a3.015,3.015,0,0,0-3-3,3,3,0,0,0-3,3v4A1,1,0,0,0,8,47Zm1-5a1,1,0,0,1,1-1,.974.974,0,0,1,.712.306A.957.957,0,0,1,11,42v3H9Z"/><path class="cls-6" d="M18,47h4a1,1,0,0,0,1-1V42a3.015,3.015,0,0,0-3-3,3,3,0,0,0-3,3v4A1,1,0,0,0,18,47Zm1-5a1,1,0,0,1,1-1,.974.974,0,0,1,.712.306A.957.957,0,0,1,21,42v3H19Z"/><path class="cls-6" d="M46,39a3,3,0,0,0-3,3v4a1,1,0,0,0,1,1h4a1,1,0,0,0,1-1V42a3.015,3.015,0,0,0-3-3Zm1,6H45V42a1,1,0,0,1,1-1,.978.978,0,0,1,.713.306A.965.965,0,0,1,47,42Z"/><path class="cls-6" d="M36,39a3,3,0,0,0-3,3v4a1,1,0,0,0,1,1h4a1,1,0,0,0,1-1V42a3.015,3.015,0,0,0-3-3Zm1,6H35V42a1,1,0,0,1,1-1,.978.978,0,0,1,.713.306A.965.965,0,0,1,37,42Z"/><path class="cls-6" d="M56,39a3,3,0,0,0-3,3v4a1,1,0,0,0,1,1h4a1,1,0,0,0,1-1V42a3.015,3.015,0,0,0-3-3Zm1,6H55V42a1,1,0,0,1,1-1,.978.978,0,0,1,.713.306A.965.965,0,0,1,57,42Z"/><path class="cls-6" d="M8,58h4a1,1,0,0,0,1-1V53a3.015,3.015,0,0,0-3-3,3,3,0,0,0-3,3v4A1,1,0,0,0,8,58Zm1-5a1,1,0,0,1,1-1,.974.974,0,0,1,.712.306A.957.957,0,0,1,11,53v3H9Z"/><path class="cls-6" d="M18,58h4a1,1,0,0,0,1-1V53a3.015,3.015,0,0,0-3-3,3,3,0,0,0-3,3v4A1,1,0,0,0,18,58Zm1-5a1,1,0,0,1,1-1,.974.974,0,0,1,.712.306A.957.957,0,0,1,21,53v3H19Z"/></g></svg>