<?xml version="1.0" encoding="utf-8"?>
<!-- Generator: Adobe Illustrator 24.3.0, SVG Export Plug-In . SVG Version: 6.00 Build 0)  -->
<svg version="1.1" id="Layer_1" xmlns="http://www.w3.org/2000/svg" xmlns:xlink="http://www.w3.org/1999/xlink" x="0px" y="0px"
	 viewBox="0 0 80 80" enable-background="new 0 0 80 80" xml:space="preserve">
<path fill="#1A171B" d="M63.272,52.357c0.401,0,0.728-0.326,0.728-0.727v-8.789c0-0.01-0.006-0.018-0.007-0.027
	c-0.004-0.098-0.03-0.189-0.069-0.273c-0.011-0.023-0.018-0.045-0.03-0.066c-0.051-0.084-0.118-0.156-0.199-0.217
	c-0.01-0.006-0.014-0.018-0.023-0.025c-0.012-0.008-0.027-0.006-0.039-0.014c-0.023-0.014-0.044-0.031-0.069-0.043l-7.665-3.373
	l2.226-0.979c0.265-0.117,0.435-0.377,0.435-0.666V26.634c0-0.4-0.325-0.726-0.727-0.726c-0.402,0-0.728,0.326-0.728,0.726v10.049
	l-12.248,5.389V29.258l13.268-5.836c0.009-0.004,0.015-0.012,0.023-0.016c0.067-0.033,0.128-0.078,0.181-0.127
	c0.024-0.024,0.043-0.047,0.063-0.072c0.032-0.041,0.06-0.084,0.083-0.131c0.015-0.031,0.03-0.057,0.04-0.088
	c0.022-0.064,0.034-0.133,0.037-0.201c0.001-0.035-0.003-0.068-0.007-0.106c-0.006-0.059-0.017-0.117-0.038-0.174
	c-0.005-0.014-0.003-0.029-0.01-0.045c-0.008-0.016-0.023-0.027-0.031-0.043c-0.028-0.055-0.063-0.102-0.104-0.146
	c-0.018-0.02-0.031-0.039-0.05-0.057c-0.057-0.051-0.119-0.094-0.191-0.127l-13.7-6.029c-0.185-0.08-0.4-0.08-0.586,0l-5.471,2.408
	c-0.368,0.162-0.534,0.592-0.373,0.959c0.162,0.369,0.595,0.533,0.959,0.373l5.178-2.279l11.895,5.234L44.127,27.99l-5.183-2.281
	l8.956-3.941c0.368-0.162,0.535-0.59,0.373-0.959c-0.163-0.369-0.595-0.533-0.958-0.373l-10.177,4.479l-4.905-2.158l3.929-1.728
	c0.368-0.162,0.535-0.592,0.373-0.959c-0.163-0.369-0.595-0.533-0.958-0.373l-5.442,2.395c-0.027,0.012-0.048,0.031-0.073,0.047
	c-0.01,0.006-0.023,0.004-0.032,0.012c-0.009,0.004-0.012,0.016-0.02,0.021c-0.086,0.061-0.157,0.137-0.209,0.226
	c-0.009,0.014-0.014,0.029-0.021,0.045c-0.047,0.098-0.079,0.203-0.079,0.314v5.428l-13.266,5.838
	c-0.026,0.012-0.048,0.031-0.073,0.045c-0.01,0.006-0.021,0.006-0.032,0.012c-0.008,0.006-0.011,0.016-0.019,0.021
	c-0.087,0.061-0.157,0.137-0.209,0.226c-0.009,0.016-0.015,0.031-0.021,0.047C16.033,34.47,16,34.574,16,34.685v0.002l0,0v14.4
	c0,0.287,0.17,0.549,0.432,0.666L26.881,54.4c0.362,0.162,0.795-0.002,0.96-0.369c0.163-0.367-0.002-0.797-0.369-0.961
	l-10.018-4.453v-12.81l5.396,2.398v10.395c0,0.402,0.325,0.729,0.728,0.729c0.401,0,0.727-0.326,0.727-0.729v-9.748l5.391,2.396
	L29.56,55.111c-0.004,0.402,0.318,0.73,0.721,0.734c0.002,0,0.005,0,0.007,0c0.398,0,0.724-0.322,0.728-0.721l0.136-13.994
	l3.249-1.43l3.401,1.496l-2.224,0.979c-0.027,0.012-0.048,0.031-0.073,0.045c-0.01,0.006-0.022,0.006-0.032,0.012
	c-0.009,0.006-0.012,0.016-0.02,0.021c-0.086,0.062-0.157,0.137-0.209,0.226c-0.009,0.016-0.014,0.031-0.021,0.047
	c-0.047,0.096-0.08,0.201-0.08,0.314v14.402c0,0.287,0.171,0.549,0.435,0.664l2.8,1.234c0.363,0.158,0.796-0.006,0.958-0.373
	c0.162-0.369-0.004-0.797-0.373-0.959l-2.365-1.041V43.957l12.245,5.387v11.537L39.27,46.607c-0.223-0.334-0.674-0.424-1.009-0.199
	c-0.334,0.223-0.423,0.676-0.199,1.01l9.511,14.182l-5.729-2.521c-0.363-0.16-0.795,0.004-0.958,0.373
	c-0.162,0.367,0.005,0.797,0.373,0.959l8.019,3.527c0.011,0.006,0.023,0.004,0.034,0.008c0.083,0.031,0.169,0.053,0.257,0.055
	c0,0,0.001,0,0.002,0l0,0h0.001c0.001,0,0.001,0,0.002,0c0.088-0.002,0.174-0.023,0.256-0.055c0.012-0.004,0.023-0.002,0.034-0.008
	l13.703-6.029C63.829,57.793,64,57.531,64,57.244v-2.441c0-0.402-0.326-0.729-0.728-0.729c-0.401,0-0.727,0.326-0.727,0.729v1.967
	l-12.248,5.389V49.343l12.248-5.387v7.674C62.546,52.031,62.871,52.357,63.272,52.357z M30.356,39.89l-11.823-5.203L29.7,29.773
	v7.385c0,0.289,0.17,0.549,0.435,0.666l2.459,1.082L30.356,39.89z M31.154,36.683V23.871l9.04,3.976l3.205,1.41v12.814
	L31.154,36.683z M49.569,48.076l-11.895-5.234l1.932-0.85l4.228,1.861c0.012,0.004,0.023,0.002,0.035,0.006
	c0.082,0.033,0.168,0.055,0.256,0.055c0.001,0,0.001,0,0.001,0h0.002l0,0c0.001,0,0.001,0,0.001,0c0.089,0,0.175-0.021,0.257-0.055
	c0.012-0.004,0.023-0.002,0.035-0.006l9.671-4.256l7.372,3.244L49.569,48.076z"/>
</svg>
