<?xml version="1.0" encoding="UTF-8" standalone="no"?>
<!-- Generator: Adobe Illustrator 16.0.0, SVG Export Plug-In . SVG Version: 6.00 Build 0)  -->

<svg
   version="1.1"
   id="Layer_1"
   x="0px"
   y="0px"
   width="148.87198"
   height="149"
   viewBox="0 0 148.87198 149"
   enable-background="new 0 0 128 128"
   xml:space="preserve"
   sodipodi:docname="medio-ambiente.svg"
   inkscape:version="1.1.2 (0a00cf5339, 2022-02-04, custom)"
   inkscape:export-filename="/run/media/alf/datos/web/ingenieria-matematica/static/images/icons/medio-ambiente.png"
   inkscape:export-xdpi="109.468"
   inkscape:export-ydpi="109.468"
   xmlns:inkscape="http://www.inkscape.org/namespaces/inkscape"
   xmlns:sodipodi="http://sodipodi.sourceforge.net/DTD/sodipodi-0.dtd"
   xmlns="http://www.w3.org/2000/svg"
   xmlns:svg="http://www.w3.org/2000/svg"><defs
   id="defs51" /><sodipodi:namedview
   id="namedview49"
   pagecolor="#505050"
   bordercolor="#ffffff"
   borderopacity="1"
   inkscape:pageshadow="0"
   inkscape:pageopacity="0"
   inkscape:pagecheckerboard="1"
   showgrid="false"
   lock-margins="true"
   fit-margin-top="10"
   fit-margin-left="10"
   fit-margin-right="10"
   fit-margin-bottom="10"
   inkscape:zoom="6.8203125"
   inkscape:cx="74.190149"
   inkscape:cy="74.483391"
   inkscape:window-width="913"
   inkscape:window-height="328"
   inkscape:window-x="0"
   inkscape:window-y="720"
   inkscape:window-maximized="1"
   inkscape:current-layer="Layer_1" />
<g
   id="g46"
   style="fill:#ffffff;stroke:#ffffff"
   transform="translate(10.325,10.5)"
   inkscape:export-filename="/run/media/alf/datos/web/ingenieria-matematica/static/images/icons/medio-ambiente-blanco.png"
   inkscape:export-xdpi="109.468"
   inkscape:export-ydpi="109.468">
	<g
   id="g28"
   style="fill:#ffffff;stroke:#ffffff">
		<g
   id="g26"
   style="fill:#ffffff;stroke:#ffffff">
			<g
   id="g6"
   style="fill:#ffffff;stroke:#ffffff">
				<g
   id="g4"
   style="fill:#ffffff;stroke:#ffffff">
					<path
   fill="#282d33"
   d="M 46.926,80.953 C 36.28,72.186 30.192,59.313 30.224,45.635 30.252,33.434 35.076,21.963 43.808,13.333 52.511,4.733 64.04,0 76.281,0 c 0.037,0 0.072,0 0.107,0 12.283,0.027 23.834,4.814 32.523,13.479 8.695,8.669 13.467,20.162 13.439,32.361 -0.021,10.407 -3.678,20.593 -10.293,28.681 l -3.115,-2.549 c 6.033,-7.372 9.365,-16.656 9.383,-26.141 0.027,-11.12 -4.324,-21.597 -12.254,-29.503 C 98.137,8.418 87.592,4.048 76.378,4.024 c -0.031,0 -0.064,0 -0.098,0 -11.176,0 -21.699,4.319 -29.644,12.171 -7.964,7.87 -12.363,18.329 -12.389,29.449 -0.03,12.468 5.523,24.206 15.236,32.202 z"
   id="path2"
   style="fill:#ffffff;stroke:#ffffff" />
				</g>
			</g>
			<g
   id="g24"
   style="fill:#ffffff;stroke:#ffffff">
				<g
   id="g10"
   style="fill:#ffffff;stroke:#ffffff">
					<path
   fill="#282d33"
   d="m 78.938,76.687 -5.75,-12.965 -1.578,-9.064 -4.65,-0.198 -3.233,-5.632 3.6,-9.862 5.438,-1.257 -5.133,-0.878 -0.773,-4.537 4.996,-2.862 -2.162,-3.314 7.889,-7.078 6.588,2.3 9.313,-2.868 c 0.816,-0.431 4.527,-2.381 8.623,-4.504 l 1.85,3.573 c -4.627,2.398 -8.762,4.578 -8.764,4.579 l -0.346,0.143 -10.756,3.312 -5.592,-1.951 -3.549,3.186 2.605,3.995 -4.895,2.805 3.629,0.621 3.762,4.537 -1.898,4.671 -5.086,-1.667 -2.707,0.625 -2.209,6.053 1.195,2.085 5.674,0.243 2.049,11.768 1.787,4.033 6.26,-14.755 -3.137,-1.234 -0.941,-8.111 7.734,1.543 4.271,-5.384 4.135,7.363 5.635,-3.753 2.945,5.799 4.221,-8.444 4.545,-6.718 3.332,2.254 -4.469,6.607 -7.593,15.254 -4.52,-8.897 -5.479,3.65 -3.328,-5.922 -2.072,2.614 -4.725,-0.942 0.027,0.223 4.734,1.864 z"
   id="path8"
   style="fill:#ffffff;stroke:#ffffff" />
				</g>
				<g
   id="g14"
   style="fill:#ffffff;stroke:#ffffff">
					<path
   fill="#282d33"
   d="m 34.532,51.987 -0.029,-4.024 6.008,-0.042 -1.038,-4.048 c -0.35,-0.98 -0.548,-2.509 -0.194,-3.313 l 1.732,-1.241 4.549,-0.421 7.292,-6.45 -1.971,-2.382 c -2.24,2.666 -2.589,2.771 -3.532,2.713 l -1.59,-0.944 c -2.533,-3.917 -3.005,-4.707 -2.427,-5.854 l 3.444,-8.257 1.788,-5.028 3.791,1.348 -1.844,5.18 -3.152,7.558 c 0.118,0.203 0.262,0.443 0.422,0.706 0.498,-0.586 1.047,-1.246 1.542,-1.852 l 3.108,-0.009 4.764,5.757 -0.217,2.79 -9.243,8.176 -1.148,0.497 -3.147,0.291 1.61,6.279 -1.935,2.511 z"
   id="path12"
   style="fill:#ffffff;stroke:#ffffff" />
				</g>
				<g
   id="g18"
   style="fill:#ffffff;stroke:#ffffff">
					<path
   fill="#282d33"
   d="M 53.401,77.063 47.686,72.4 47.786,64.166 43.934,56.708 49.2,44.965 63.365,57.724 Z m -1.668,-6.554 0.365,0.298 6.27,-12.169 -7.756,-6.986 -2.213,4.934 3.126,6.054 c 0.208,0.409 0.303,0.849 0.287,1.287 z"
   id="path16"
   style="fill:#ffffff;stroke:#ffffff" />
				</g>
				<g
   id="g22"
   style="fill:#ffffff;stroke:#ffffff">
					<path
   fill="#282d33"
   d="M 61.169,29.017 54.673,15.488 56.437,14.6 c 6.698,-3.369 11.295,-4.221 13.438,-4.428 l 2.768,-0.269 -2.73,12.126 z m -1.144,-11.679 2.582,5.378 3.69,-2.948 1.146,-5.09 c -1.812,0.438 -4.31,1.229 -7.418,2.66 z"
   id="path20"
   style="fill:#ffffff;stroke:#ffffff" />
				</g>
			</g>
		</g>
	</g>
	<g
   id="g44"
   style="fill:#ffffff;stroke:#ffffff">
		<g
   id="g42"
   style="fill:#ffffff;stroke:#ffffff">
			<g
   id="g32"
   style="fill:#ffffff;stroke:#ffffff">
				<path
   fill="#282d33"
   d="M 51.16,114.359 H 35.378 v -4.023 h 15.063 l 44.601,-16.434 26.75,-18.268 -0.611,-0.608 c -2.705,-2.68 -7.514,-1.74 -10.662,0.507 l -0.17,0.109 -24.443,14.015 H 75.031 c -0.205,0.021 -0.414,0.034 -0.625,0.04 l -18.052,-0.04 v -4.024 h 18.488 c 2.971,-0.418 5.297,-3.816 5.58,-6.895 H 51.003 L 38.592,89.566 h -3.214 v -4.023 h 1.705 L 49.494,74.714 h 34.701 l 0.158,1.842 c 0.01,0.123 0.107,1.131 0.107,1.131 l 0.01,0.138 c 0.076,2.687 -0.918,5.562 -2.654,7.809 h 3.012 l 6.303,-3.639 17.137,-9.797 c 4.598,-3.234 11.455,-4.278 15.748,-0.027 l 2.076,2.063 c 0.131,0.132 0.232,0.252 0.336,0.379 l 1.396,1.699 -1.773,1.29 -29.149,19.904 -0.234,0.086 z"
   id="path30"
   style="fill:#ffffff;stroke:#ffffff" />
			</g>
			<g
   id="g36"
   style="fill:#ffffff;stroke:#ffffff">
				<polygon
   fill="#282d33"
   points="29.976,128 11.942,128 11.942,123.977 25.952,123.977 25.952,82.684 0.175,82.684 0.175,78.659 29.976,78.659 "
   id="polygon34"
   style="fill:#ffffff;stroke:#ffffff" />
			</g>
			<g
   id="g40"
   style="fill:#ffffff;stroke:#ffffff">
				<rect
   x="14.524"
   y="113.558"
   fill="#282d33"
   width="5.2280002"
   height="4.0240002"
   id="rect38"
   style="fill:#ffffff;stroke:#ffffff" />
			</g>
		</g>
	</g>
</g>
</svg>
