<svg xmlns="http://www.w3.org/2000/svg" viewBox="0 0 64 64"><defs><style>.cls-1{fill:#edcad4;}.cls-2{fill:#9d5b6e;}.cls-3{fill:#aeadb3;}.cls-4{fill:#3e2c27;}.cls-5{fill:#eaeaea;}.cls-6{fill:#281111;}</style></defs><title>cow</title><g id="cow"><path class="cls-1" d="M51,47.5v2A7.5,7.5,0,0,1,43.5,57h-23A7.5,7.5,0,0,1,13,49.5v-2A7.52,7.52,0,0,1,20.5,40h23A7.52,7.52,0,0,1,51,47.5Z"/><circle class="cls-2" cx="23.5" cy="48.5" r="2.5"/><circle class="cls-2" cx="40.5" cy="48.5" r="2.5"/><path class="cls-3" d="M21.5,16l-.18,1.07a14,14,0,0,0-5.18,9.47A10.84,10.84,0,0,1,13,27H7A11,11,0,0,1,18,16Z"/><path class="cls-3" d="M21.5,16l-.18,1.07a14,14,0,0,0-5.18,9.47A10.84,10.84,0,0,1,13,27H7A11,11,0,0,1,18,16Z"/><path class="cls-3" d="M57,27H51a10.84,10.84,0,0,1-3.14-.46,14,14,0,0,0-5.18-9.47L42.5,16H46A11,11,0,0,1,57,27Z"/><path class="cls-4" d="M28.19,14.13A13.9,13.9,0,0,0,22.86,16a13.64,13.64,0,0,0-1.54,1.07L21.5,16l1.17-7a2.36,2.36,0,0,1,4.66,0Z"/><path class="cls-5" d="M47.93,28V41.46A7.4,7.4,0,0,0,43.5,40h-23a7.4,7.4,0,0,0-4.43,1.46V28c0-.49,0-1,.07-1.46a14,14,0,0,1,5.18-9.47A13.64,13.64,0,0,1,22.86,16a13.9,13.9,0,0,1,5.33-1.87A12.9,12.9,0,0,1,30.07,14h3.86a12.9,12.9,0,0,1,1.88.13A13.9,13.9,0,0,1,41.14,16a13.64,13.64,0,0,1,1.54,1.07,14,14,0,0,1,5.18,9.47C47.9,27,47.93,27.51,47.93,28Z"/><circle class="cls-6" cx="25.5" cy="29.5" r="1.5"/><circle class="cls-6" cx="38.5" cy="29.5" r="1.5"/><path class="cls-4" d="M42.68,17.07A13.64,13.64,0,0,0,41.14,16a13.9,13.9,0,0,0-5.33-1.87L36.67,9a2.36,2.36,0,0,1,4.66,0l1.17,7Z"/><path class="cls-6" d="M21,58h-.5A8.51,8.51,0,0,1,12,49.5v-2a8.53,8.53,0,0,1,3.48-6.85,8.37,8.37,0,0,1,5-1.65H36a1,1,0,0,1,0,2H20.5a6.42,6.42,0,0,0-3.83,1.26A6.49,6.49,0,0,0,14,47.5v2A6.51,6.51,0,0,0,20.5,56H21a1,1,0,0,1,0,2Z"/><path class="cls-6" d="M43.5,58H30a1,1,0,0,1,0-2H43.5A6.51,6.51,0,0,0,50,49.5v-2a6.48,6.48,0,0,0-2.66-5.23A6.41,6.41,0,0,0,43.5,41H40a1,1,0,0,1,0-2h3.5a8.36,8.36,0,0,1,5,1.66A8.52,8.52,0,0,1,52,47.5v2A8.51,8.51,0,0,1,43.5,58Z"/><path class="cls-6" d="M26,58H25a1,1,0,0,1,0-2h1a1,1,0,0,1,0,2Z"/><path class="cls-6" d="M13,28H7a1,1,0,0,1-1-1,12,12,0,0,1,3.09-8,1,1,0,0,1,1.48,1.34A10,10,0,0,0,8.05,26H13a9.71,9.71,0,0,0,2.23-.25A15.21,15.21,0,0,1,19.87,17H18a10.05,10.05,0,0,0-4.67,1.15,1,1,0,0,1-.94-1.76A12,12,0,0,1,18,15h3.5a1,1,0,0,1,.76.35,1,1,0,0,1,.23.82l-.18,1.07a1,1,0,0,1-.36.61,13.13,13.13,0,0,0-4.82,8.79,1,1,0,0,1-.7.86A12,12,0,0,1,13,28Z"/><path class="cls-6" d="M13,28H7a1,1,0,0,1-1-1,12,12,0,0,1,3.09-8,1,1,0,0,1,1.48,1.34A10,10,0,0,0,8.05,26H13a9.71,9.71,0,0,0,2.23-.25A15.21,15.21,0,0,1,19.87,17H18a10.05,10.05,0,0,0-4.67,1.15,1,1,0,0,1-.94-1.76A12,12,0,0,1,18,15h3.5a1,1,0,0,1,.76.35,1,1,0,0,1,.23.82l-.18,1.07a1,1,0,0,1-.36.61,13.13,13.13,0,0,0-4.82,8.79,1,1,0,0,1-.7.86A12,12,0,0,1,13,28Z"/><path class="cls-6" d="M57,28H51a12,12,0,0,1-3.43-.5,1,1,0,0,1-.7-.86,12.92,12.92,0,0,0-.49-2.38,1,1,0,1,1,1.92-.58,17.13,17.13,0,0,1,.47,2.07A9.71,9.71,0,0,0,51,26h5a10,10,0,0,0-10-9H44.13a15.26,15.26,0,0,1,2.44,2.92A1,1,0,1,1,44.89,21a13.12,13.12,0,0,0-2.83-3.15,1,1,0,0,1-.37-.61l-.18-1.07a1,1,0,0,1,.23-.82A1,1,0,0,1,42.5,15H46A12,12,0,0,1,58,27,1,1,0,0,1,57,28Z"/><path class="cls-6" d="M29,13l-.71-4.23a3.37,3.37,0,0,0-6.64,0l-1,6.19-.26,1.54-.06.36a1,1,0,0,0,1,1.17,1,1,0,0,0,.62-.22l.08-.07a11.64,11.64,0,0,1,1.36-.92,12.68,12.68,0,0,1,5-1.74,1.06,1.06,0,0,0,.65-.4,1,1,0,0,0,.19-.75Zm-3.13.55a1.21,1.21,0,0,0-.25.08,14.71,14.71,0,0,0-2.3.92q-.29.13-.57.3l-.09,0,1-5.81a1.36,1.36,0,0,1,2.68,0l.7,4.18C26.65,13.39,26.27,13.48,25.9,13.59Z"/><path class="cls-6" d="M16.07,42.46a1,1,0,0,1-.45-.11,1,1,0,0,1-.55-.89V28c0-.52,0-1,.07-1.54a15.17,15.17,0,0,1,5.55-10.17,15.58,15.58,0,0,1,1.66-1.15,14.71,14.71,0,0,1,5.71-2,14.1,14.1,0,0,1,2-.14h3.86a14.6,14.6,0,0,1,2,.14,14.83,14.83,0,0,1,5.7,2,15.41,15.41,0,0,1,1.64,1.15,15,15,0,0,1,3.27,3.63A1,1,0,1,1,44.89,21a13.12,13.12,0,0,0-2.83-3.15,13.13,13.13,0,0,0-6.38-2.73A12.23,12.23,0,0,0,33.93,15H30.07a11.75,11.75,0,0,0-1.73.12,12.68,12.68,0,0,0-5,1.74,12,12,0,0,0-1.44,1,13.15,13.15,0,0,0-4.81,8.79c0,.44-.06.9-.06,1.36V39.72A8.5,8.5,0,0,1,20.5,39H36a1,1,0,0,1,0,2H20.5a6.42,6.42,0,0,0-3.83,1.26A1,1,0,0,1,16.07,42.46Z"/><path class="cls-6" d="M47.93,42.46a1,1,0,0,1-.6-.2A6.42,6.42,0,0,0,43.5,41H40a1,1,0,0,1,0-2h3.5a8.5,8.5,0,0,1,3.43.72V28c0-.46,0-.92-.07-1.38a12.21,12.21,0,0,0-.48-2.36,1,1,0,1,1,1.92-.58,15.15,15.15,0,0,1,.55,2.76c0,.52.08,1,.08,1.56V41.46a1,1,0,0,1-.55.89A1,1,0,0,1,47.93,42.46Z"/><path class="cls-6" d="M42.68,18.07a1,1,0,0,1-.62-.22,13.13,13.13,0,0,0-6.38-2.73,1,1,0,0,1-.68-.4,1,1,0,0,1-.18-.76L35,12.83a1,1,0,0,1,2,.34l0,.14a14.66,14.66,0,0,1,4.35,1.63l-1-5.81a1.36,1.36,0,0,0-2.68,0l0,.12a1,1,0,1,1-2-.28l0-.14a3.36,3.36,0,0,1,6.64,0l1.35,8.09a1,1,0,0,1-.48,1A1.06,1.06,0,0,1,42.68,18.07Z"/><path class="cls-6" d="M23.5,52a1,1,0,0,1,0-2A1.5,1.5,0,1,0,22,48.5a1,1,0,0,1-2,0A3.5,3.5,0,1,1,23.5,52Z"/><path class="cls-6" d="M40.5,52A3.5,3.5,0,1,1,44,48.5a1,1,0,0,1-2,0A1.5,1.5,0,1,0,40.5,50a1,1,0,0,1,0,2Z"/></g></svg>